<mxfile host="app.diagrams.net" modified="2024-03-22T08:13:53.716Z" agent="Mozilla/5.0 (Macintosh; Intel Mac OS X 10_15_7) AppleWebKit/605.1.15 (KHTML, like Gecko) Version/17.4 Safari/605.1.15" version="24.0.7" etag="AuecdPeb4oiXAbKxR650" type="github">
  <diagram name="Page-1" id="OUD-E8QQ1-7FyTojJa_w">
    <mxGraphModel>
      <root>
        <mxCell id="0" />
        <mxCell id="1" parent="0" />
      </root>
    </mxGraphModel>
  </diagram>
</mxfile>
